<?xml version="1.0" encoding="UTF-8"?>
<svg width="50px" height="50px" viewBox="0 0 50 50" version="1.1" xmlns="http://www.w3.org/2000/svg" xmlns:xlink="http://www.w3.org/1999/xlink">
    <!-- Generator: Sketch 64 (93537) - https://sketch.com -->
    <title>Shape</title>
    <desc>Created with Sketch.</desc>
    <g id="web" stroke="none" stroke-width="1" fill="none" fill-rule="evenodd">
        <g id="Contact" transform="translate(-773.000000, -1028.000000)" fill="#00ACEE" fill-rule="nonzero">
            <g id="Group" transform="translate(617.000000, 1028.000000)">
                <path d="M200.642857,0 L161.357143,0 C158.399554,0 156,2.39955357 156,5.35714286 L156,44.6428571 C156,47.6004464 158.399554,50 161.357143,50 L200.642857,50 C203.600446,50 206,47.6004464 206,44.6428571 L206,5.35714286 C206,2.39955357 203.600446,0 200.642857,0 Z M195.29875,17.2304733 C195.32125,17.5429011 195.32125,17.8664871 195.32125,18.178915 C195.32125,27.8530204 187.89625,39 174.32875,39 C170.14375,39 166.2625,37.7949211 163,35.7195075 C163.59625,35.7864563 164.17,35.8087726 164.7775,35.8087726 C168.23125,35.8087726 171.40375,34.6483263 173.935,32.684494 C170.695,32.6175452 167.9725,30.5086572 167.03875,27.6075414 C168.175,27.7749134 169.19875,27.7749134 170.36875,27.4736437 C166.99375,26.7929973 164.4625,23.8472489 164.4625,20.287803 L164.4625,20.1985379 C165.44125,20.7452866 166.58875,21.0800308 167.7925,21.1246633 C165.736954,19.7685443 164.503458,17.4809095 164.5075,15.0323201 C164.5075,13.6710273 164.8675,12.4213159 165.50875,11.3389765 C169.1425,15.7799154 174.59875,18.6810312 180.71875,18.993459 C179.6725,14.0280877 183.41875,10 187.91875,10 C190.045,10 191.9575,10.8814929 193.3075,12.3097345 C194.9725,11.9973067 196.57,11.3836091 197.9875,10.5467487 C197.43625,12.2427857 196.2775,13.6710273 194.7475,14.5748365 C196.2325,14.4186225 197.6725,14.0057715 199,13.4367064 C197.99875,14.8984225 196.73875,16.1927664 195.29875,17.2304733 L195.29875,17.2304733 Z" id="Shape"></path>
            </g>
        </g>
    </g>
</svg>